{
    "asset" : {
        "generator" : "Khronos glTF Blender I/O v3.2.43",
        "version" : "2.0"
    },
    "scene" : 0,
    "scenes" : [
        {
            "name" : "Scene",
            "nodes" : [
                0
            ]
        }
    ],
    "nodes" : [
        {
            "mesh" : 0,
            "name" : "Brep"
        }
    ],
    "materials" : [
        {
            "doubleSided" : true,
            "name" : "Material-Plastic",
            "pbrMetallicRoughness" : {
                "baseColorFactor" : [
                    1,
                    0.4078429937362671,
                    0.313726007938385,
                    1
                ],
                "roughnessFactor" : 0.5
            }
        }
    ],
    "meshes" : [
        {
            "name" : "mesh-ae2eb53b-549e-4b9e-99d3-ad3614204636",
            "primitives" : [
                {
                    "attributes" : {
                        "POSITION" : 0,
                        "NORMAL" : 1,
                        "TEXCOORD_0" : 2
                    },
                    "indices" : 3,
                    "material" : 0
                }
            ]
        }
    ],
    "accessors" : [
        {
            "bufferView" : 0,
            "componentType" : 5126,
            "count" : 2468,
            "max" : [
                3.1237943172454834,
                10,
                3.1237943172454834
            ],
            "min" : [
                -3.1237943172454834,
                0,
                -3.1237943172454834
            ],
            "type" : "VEC3"
        },
        {
            "bufferView" : 1,
            "componentType" : 5126,
            "count" : 2468,
            "type" : "VEC3"
        },
        {
            "bufferView" : 2,
            "componentType" : 5126,
            "count" : 2468,
            "type" : "VEC2"
        },
        {
            "bufferView" : 3,
            "componentType" : 5123,
            "count" : 13824,
            "type" : "SCALAR"
        }
    ],
    "bufferViews" : [
        {
            "buffer" : 0,
            "byteLength" : 29616,
            "byteOffset" : 0
        },
        {
            "buffer" : 0,
            "byteLength" : 29616,
            "byteOffset" : 29616
        },
        {
            "buffer" : 0,
            "byteLength" : 19744,
            "byteOffset" : 59232
        },
        {
            "buffer" : 0,
            "byteLength" : 27648,
            "byteOffset" : 78976
        }
    ],
    "buffers" : [
        {
            "byteLength" : 106624,
            "uri" : "data:application/octet-stream;base64,"
        }
    ]
}
